HIERARCHY
ROOT Hips
{
	OFFSET 0.00000 0.00000 0.00000
	CHANNELS 6 Xposition Yposition Zposition Zrotation Yrotation Xrotation 
	JOINT LHipJoint
	{
		OFFSET 0 0 0
		CHANNELS 3 Zrotation Yrotation Xrotation
		JOINT LeftUpLeg
		{
			OFFSET 1.92384 -1.64427 0.83032
			CHANNELS 3 Zrotation Yrotation Xrotation
			JOINT LeftLeg
			{
				OFFSET 2.52872 -6.94761 0.00000
				CHANNELS 3 Zrotation Yrotation Xrotation
				JOINT LeftFoot
				{
					OFFSET 2.51827 -6.91890 0.00000
					CHANNELS 3 Zrotation Yrotation Xrotation
					JOINT LeftToeBase
					{
						OFFSET 0.22757 -0.62524 2.06528
						CHANNELS 3 Zrotation Yrotation Xrotation
						End Site
						{
							OFFSET 0.00000 -0.00000 1.08218
						}
					}
				}
			}
		}
	}
	JOINT RHipJoint
	{
		OFFSET 0 0 0
		CHANNELS 3 Zrotation Yrotation Xrotation
		JOINT RightUpLeg
		{
			OFFSET -2.09517 -1.64427 0.83032
			CHANNELS 3 Zrotation Yrotation Xrotation
			JOINT RightLeg
			{
				OFFSET -2.55173 -7.01082 0.00000
				CHANNELS 3 Zrotation Yrotation Xrotation
				JOINT RightFoot
				{
					OFFSET -2.50265 -6.87598 0.00000
					CHANNELS 3 Zrotation Yrotation Xrotation
					JOINT RightToeBase
					{
						OFFSET -0.22612 -0.62126 1.98677
						CHANNELS 3 Zrotation Yrotation Xrotation
						End Site
						{
							OFFSET -0.00000 -0.00000 1.04433
						}
					}
				}
			}
		}
	}
	JOINT LowerBack
	{
		OFFSET 0 0 0
		CHANNELS 3 Zrotation Yrotation Xrotation
		JOINT Spine
		{
			OFFSET 0.02839 1.68926 0.31690
			CHANNELS 3 Zrotation Yrotation Xrotation
			JOINT Spine1
			{
				OFFSET -0.01522 1.70183 0.21192
				CHANNELS 3 Zrotation Yrotation Xrotation
				JOINT Neck
				{
					OFFSET 0 0 0
					CHANNELS 3 Zrotation Yrotation Xrotation
					JOINT Neck1
					{
						OFFSET -0.04523 1.88988 0.10630
						CHANNELS 3 Zrotation Yrotation Xrotation
						JOINT Head
						{
							OFFSET 0.05172 1.78070 -0.56858
							CHANNELS 3 Zrotation Yrotation Xrotation
							End Site
							{
								OFFSET 0.01532 1.90392 -0.20434
							}
						}
					}
				}
				JOINT LeftShoulder
				{
					OFFSET 0 0 0
					CHANNELS 3 Zrotation Yrotation Xrotation
					JOINT LeftArm
					{
						OFFSET 3.25522 0.75486 0.22086
						CHANNELS 3 Zrotation Yrotation Xrotation
						JOINT LeftForeArm
						{
							OFFSET 4.85645 -0.00000 0.00000
							CHANNELS 3 Zrotation Yrotation Xrotation
							JOINT LeftHand
							{
								OFFSET 2.79874 -0.00000 0.00000
								CHANNELS 3 Zrotation Yrotation Xrotation
								JOINT LeftFingerBase
								{
									OFFSET 0 0 0
									CHANNELS 3 Zrotation Yrotation Xrotation
									JOINT LeftHandIndex1
									{
										OFFSET 0.57340 -0.00000 0.00000
										CHANNELS 3 Zrotation Yrotation Xrotation
										End Site
										{
											OFFSET 0.46229 -0.00000 0.00000
										}
									}
								}
								JOINT LThumb
								{
									OFFSET 0 0 0
									CHANNELS 3 Zrotation Yrotation Xrotation
									End Site
									{
										OFFSET 0.46935 -0.00000 0.46935
									}
								}
							}
						}
					}
				}
				JOINT RightShoulder
				{
					OFFSET 0 0 0
					CHANNELS 3 Zrotation Yrotation Xrotation
					JOINT RightArm
					{
						OFFSET -3.29079 0.52751 0.36356
						CHANNELS 3 Zrotation Yrotation Xrotation
						JOINT RightForeArm
						{
							OFFSET -4.67018 -0.00000 0.00000
							CHANNELS 3 Zrotation Yrotation Xrotation
							JOINT RightHand
							{
								OFFSET -2.65534 -0.00000 0.00000
								CHANNELS 3 Zrotation Yrotation Xrotation
								JOINT RightFingerBase
								{
									OFFSET 0 0 0
									CHANNELS 3 Zrotation Yrotation Xrotation
									JOINT RightHandIndex1
									{
										OFFSET -0.59407 -0.00000 0.00000
										CHANNELS 3 Zrotation Yrotation Xrotation
										End Site
										{
											OFFSET -0.47895 -0.00000 0.00000
										}
									}
								}
								JOINT RThumb
								{
									OFFSET 0 0 0
									CHANNELS 3 Zrotation Yrotation Xrotation
									End Site
									{
										OFFSET -0.48627 -0.00000 0.48627
									}
								}
							}
						}
					}
				}
			}
		}
	}
}
MOTION
Frames: 8
Frame Time: 0.05
0.00 0.00 0.00 0 0 0 0 0 0 -21 0 0 0 0 0 0 0 0 0 0 0 0 0 0 21 0 0 0 0 0 0 0 0 0 0 0 0 0 0 0 0 0 0 0 0 0 0 -16 0 0 21 0 0 11 0 0 0 -8 0 0 0 0 0 0 0 0 0 0 0 0 0 0 0 0 0 0 0 0 8 0 0 0 0 0 0 0 0 0 0 0 0 0 0 0 0 0
0.00 0.00 0.00 175.8860 3.1687 -139.7910 0.0000 0.0000 0.0000 -13.9741 -29.0485 -53.0224 3.9133 12.0441 35.8882 1.0370 4.1129 -21.1353 0.4097 -4.1091 -11.3839 0.0000 0.0000 0.0000 4.6478 19.5933 -74.8851 -11.0599 -17.9643 62.9760 -0.3222 -3.8938 -12.8744 -0.1503 2.4981 -6.8844 -0.6804 -4.9901 -23.2238 1.9068 -1.3195 -17.9645 1.9656 1.8153 -7.0014 -2.5228 -5.1985 -14.8103 -2.1914 -0.8565 42.6565 -0.1423 0.7745 18.6801 -0.0000 -0.0000 0.0000 -85.1441 11.9225 40.1107 24.9590 -36.1620 -8.2657 -0.0000 -0.0000 3.1740 8.9864 26.8488 4.0853 -7.1250 0.0000 -0.0000 -22.6480 55.6427 -6.1423 -0.0000 -0.0000 0.0000 79.7044 -27.1866 31.1950 -17.9499 28.0930 -4.5256 0.0000 0.0000 8.5089 -13.1202 -16.0100 3.6782 7.1250 -0.0000 -0.0000 13.7055 -45.9334 -0.3218
0.00 0.00 0.00 175.9470 3.9623 -139.5370 0.0000 0.0000 0.0000 -16.0070 -27.8278 -48.9267 3.4380 11.3725 33.5466 1.1559 4.4237 -22.3503 0.4804 -4.4448 -12.3316 0.0000 0.0000 0.0000 1.1042 22.0933 -75.0583 -6.4600 -14.8598 46.8013 -0.2392 -5.9684 -13.3272 -0.0643 1.6360 -4.5006 -0.8660 -5.0423 -23.4488 2.0940 -1.3515 -17.9963 2.2697 1.8320 -6.9184 -2.2873 -5.0254 -14.8669 -2.2856 -0.5795 42.8179 -0.1735 0.9175 18.7921 -0.0000 -0.0000 0.0000 -84.6696 10.2044 40.3102 25.0469 -36.2519 -8.3176 -0.0000 -0.0000 1.7652 10.9875 26.5194 4.9546 -7.1250 0.0000 -0.0000 -20.4546 55.7313 -5.5532 -0.0000 -0.0000 0.0000 79.4373 -27.3942 30.6701 -18.2959 28.5344 -4.6897 0.0000 0.0000 8.6815 -12.7900 -15.6093 3.4955 7.1250 -0.0000 -0.0000 13.8808 -45.4968 -0.1736
0.00 0.00 0.00 175.6690 4.0179 -139.6550 0.0000 0.0000 0.0000 -18.7325 -25.8574 -42.9698 2.4810 9.8033 28.3420 1.1410 3.7331 -21.8429 0.6160 -5.0229 -13.9740 0.0000 0.0000 0.0000 -5.2581 25.0451 -72.5909 -2.7486 -10.2765 29.8769 0.0766 -11.1393 -14.6814 -0.0431 1.3396 -3.6838 -1.1718 -5.3447 -23.4136 2.2027 -1.7071 -18.0237 2.5002 1.6877 -6.9307 -2.0720 -4.8469 -14.9425 -2.3235 -0.3664 42.8553 -0.1905 1.0272 18.8325 -0.0000 -0.0000 0.0000 -84.0821 9.3906 40.4999 24.9991 -36.2031 -8.2894 -0.0000 -0.0000 0.7602 12.1098 26.5455 5.4773 -7.1250 0.0000 -0.0000 -19.3474 55.9787 -5.3534 -0.0000 -0.0000 0.0000 79.3362 -27.5364 30.0253 -18.9337 29.3362 -4.9983 0.0000 0.0000 8.6378 -12.2767 -15.3710 3.3012 7.1250 -0.0000 -0.0000 14.2708 -45.2001 -0.0720
0.00 0.00 0.00 179.8560 3.1358 -140.5640 0.0000 0.0000 0.0000 -17.3849 -18.1969 -41.4802 6.2755 14.6901 46.0776 0.8100 -0.8563 -16.7394 2.8798 -10.4978 -30.6043 0.0000 0.0000 0.0000 7.4335 25.1786 -65.9617 -2.8852 -10.5068 30.6340 0.0512 -5.3802 -5.7786 -0.0517 -1.4675 4.0360 3.1062 -4.1677 -22.7185 3.1605 -0.7351 -18.2055 1.2993 1.8375 -7.7515 -2.3911 -4.7490 -15.1125 -2.0594 -0.3499 42.6740 -0.0116 0.9914 18.7742 0.0000 -0.0000 0.0000 -86.4145 13.2224 32.1278 20.7514 -31.5370 -5.9194 -0.0000 0.0000 -0.0123 15.8297 26.5859 7.2317 -7.1250 0.0000 -0.0000 -15.5831 56.7761 -4.5742 0.0000 -0.0000 0.0000 79.5216 -22.9547 29.0591 -16.9801 26.8315 -4.0784 0.0000 0.0000 12.2044 -13.2619 -16.0410 3.7262 7.1250 -0.0000 -0.0000 13.5862 -45.9817 -0.3353
0.00 0.00 0.00 180.8230 1.3514 -140.8560 0.0000 0.0000 0.0000 -13.8026 -16.6402 -51.2178 10.6459 17.7574 61.6263 -0.0210 -2.9782 -0.5183 1.6588 -8.1161 -23.0671 0.0000 0.0000 0.0000 11.0172 24.8150 -62.1142 -3.1229 -10.8914 31.9143 -0.1368 -4.4354 -10.0208 -0.0738 -1.7530 4.8235 4.2887 -3.8699 -22.4943 2.9075 -0.5677 -17.9907 0.3906 1.7632 -7.6736 -2.9938 -5.1929 -15.1779 -0.8241 -1.3967 42.6910 0.4843 0.6510 18.8274 -0.0000 0.0000 0.0000 -86.8790 14.3001 29.3973 18.7114 -29.0584 -4.8899 -0.0000 -0.0000 1.9341 11.9642 26.2137 5.3474 -7.1250 0.0000 -0.0000 -19.2930 55.6366 -5.1751 -0.0000 0.0000 0.0000 81.2785 -19.7750 28.0690 -16.5252 26.2276 -3.8752 0.0000 0.0000 11.2676 -15.1481 -17.7008 4.7055 7.1250 -0.0000 -0.0000 12.3764 -47.8829 -0.8932
0.00 0.00 0.00 181.2810 0.6851 -141.7160 0.0000 0.0000 0.0000 15.5590 -31.8147 -66.5247 0.9607 6.2409 17.4851 -2.1578 24.9492 -10.8629 0.3602 -3.8554 -10.6702 0.0000 0.0000 0.0000 20.7047 18.6752 -39.6421 -2.6321 -10.0743 29.2177 -1.5224 -0.8579 -23.6533 -0.0873 1.9053 -5.2441 4.6100 -2.4388 -23.4788 0.6100 1.1111 -17.5362 -1.9934 2.4066 -6.5805 -3.6535 -6.0124 -14.5072 -0.8663 -2.3200 42.5291 0.4230 0.2334 18.5798 -0.0000 0.0000 0.0000 -87.0075 22.6303 15.7371 15.3111 -24.5777 -3.3543 -0.0000 -0.0000 5.7831 8.6910 25.3463 3.7440 -7.1250 0.0000 -0.0000 -22.0025 54.2015 -5.1663 -0.0000 0.0000 0.0000 84.2178 -4.9094 44.5807 -20.8911 31.7010 -5.9926 0.0000 0.0000 8.3278 -17.9819 -17.0501 5.4363 7.1250 -0.0000 -0.0000 9.5241 -47.6211 -0.6213
0.00 0.00 0.00 177.1620 1.4303 -143.0800 0.0000 0.0000 0.0000 -3.3322 -28.9911 -63.1441 1.9272 8.7128 24.9009 -0.2501 9.6842 0.7051 0.5241 -4.6394 -12.8828 0.0000 0.0000 0.0000 16.0972 16.0801 -36.0992 -5.2861 -13.6990 42.0447 -1.3992 -1.5745 -22.9692 -0.7680 5.5962 -15.6172 -1.1339 -4.1169 -22.5482 0.0590 -0.0889 -17.8073 0.3983 2.3464 -7.1804 -3.7891 -6.4567 -14.1003 -1.5927 -2.3737 43.1709 0.1292 0.1958 18.8688 0.0000 0.0000 0.0000 -86.9750 21.9973 14.4117 13.2745 -21.6882 -2.5539 -0.0000 -0.0000 9.5202 9.3177 25.5566 4.0487 -7.1250 0.0000 -0.0000 -21.5172 54.5130 -5.2110 0.0000 0.0000 0.0000 85.4278 -9.1767 40.2169 -22.2236 33.2289 -6.7080 0.0000 0.0000 9.1217 -18.9306 -17.3373 5.8356 7.1250 -0.0000 -0.0000 8.7110 -48.0506 -0.6603
